# xmcd CD database file
#
# Track frame offsets:
#	150
#	24256
#	48476
#	72182
#	93792
#	116333
#	135602
#	150711
#	179452
#
# Disc length: 2510 seconds
#
# Revision: 0
# Processed by: cddbd v1.5.2PL0 Copyright (c) Steve Scherf et al.
# Submitted via: CDex 1.70beta2
#
DISCID=6b09cc09
DTITLE=Hellfire B.C. - Birth Of The Nuclear Age (2000 Album)
DYEAR=2000
DGENRE=Thrash Metal
TTITLE0=U-238
TTITLE1=Dark Gift
TTITLE2=Damned From Beyond
TTITLE3=Infernal Dusk Brigades
TTITLE4=Clonosis
TTITLE5=Vampires
TTITLE6=Breakneck Speed
TTITLE7=To Shift Through Bitter Ashes
TTITLE8=Life's Candle Ends
EXTD=YEAR: 2000
EXTT0=
EXTT1=
EXTT2=
EXTT3=
EXTT4=
EXTT5=
EXTT6=
EXTT7=
EXTT8=
PLAYORDER=
